<svg viewBox="0 0 80 80" fill="none" xmlns="http://www.w3.org/2000/svg">
  <path d="M24 28C24 24 28 22 32 22H48C52 22 56 24 56 28V54C56 62 50 66 40 66C30 66 24 62 24 54V28Z" stroke="#3d3d3d" stroke-width="2" fill="none"/>
  <ellipse cx="40" cy="28" rx="12" ry="4" stroke="#3d3d3d" stroke-width="2" fill="none"/>
  <path d="M56 32H60C64 32 68 36 68 42C68 48 64 52 60 52H56" stroke="#3d3d3d" stroke-width="2" stroke-linecap="round" fill="none"/>
  <path d="M28 40H52" stroke="#3d3d3d" stroke-width="1.5" stroke-linecap="round" stroke-dasharray="4 3"/>
  <path d="M34 14C34 14 36 8 38 10C40 12 38 18 38 18" stroke="#3d3d3d" stroke-width="1.5" stroke-linecap="round"/>
  <path d="M44 12C44 12 46 6 48 8C50 10 48 16 48 16" stroke="#3d3d3d" stroke-width="1.5" stroke-linecap="round"/>
</svg>
