<svg viewBox="0 0 80 80" fill="none" xmlns="http://www.w3.org/2000/svg">
  <path d="M20 32C20 28 24 26 28 26H52C56 26 60 28 60 32V54C60 62 52 66 40 66C28 66 20 62 20 54V32Z" stroke="#3d3d3d" stroke-width="2" fill="none"/>
  <ellipse cx="40" cy="32" rx="16" ry="5" stroke="#3d3d3d" stroke-width="2" fill="none"/>
  <path d="M60 36H64C68 36 72 40 72 46C72 52 68 56 64 56H60" stroke="#3d3d3d" stroke-width="2" stroke-linecap="round" fill="none"/>
  <circle cx="34" cy="32" r="3" stroke="#3d3d3d" stroke-width="1.5" fill="none"/>
  <circle cx="44" cy="31" r="4" stroke="#3d3d3d" stroke-width="1.5" fill="none"/>
  <circle cx="38" cy="35" r="2" stroke="#3d3d3d" stroke-width="1.5" fill="none"/>
  <path d="M32 18C32 18 34 12 36 14C38 16 36 22 36 22" stroke="#3d3d3d" stroke-width="1.5" stroke-linecap="round"/>
  <path d="M46 16C46 16 48 10 50 12C52 14 50 20 50 20" stroke="#3d3d3d" stroke-width="1.5" stroke-linecap="round"/>
</svg>
