<svg viewBox="0 0 80 80" fill="none" xmlns="http://www.w3.org/2000/svg">
  <path d="M20 32C20 28 24 26 28 26H52C56 26 60 28 60 32V54C60 62 52 66 40 66C28 66 20 62 20 54V32Z" stroke="#3d3d3d" stroke-width="2" fill="none"/>
  <ellipse cx="40" cy="32" rx="16" ry="5" stroke="#3d3d3d" stroke-width="2" fill="none"/>
  <path d="M60 36H64C68 36 72 40 72 46C72 52 68 56 64 56H60" stroke="#3d3d3d" stroke-width="2" stroke-linecap="round" fill="none"/>
  <circle cx="36" cy="32" r="1.5" stroke="#3d3d3d" stroke-width="1" fill="none"/>
  <circle cx="44" cy="31" r="1" stroke="#3d3d3d" stroke-width="1" fill="none"/>
  <circle cx="40" cy="34" r="1" stroke="#3d3d3d" stroke-width="1" fill="none"/>
  <path d="M30 16C30 16 32 10 34 12C36 14 34 20 34 20" stroke="#3d3d3d" stroke-width="1.5" stroke-linecap="round"/>
  <path d="M40 14C40 14 42 8 44 10C46 12 44 18 44 18" stroke="#3d3d3d" stroke-width="1.5" stroke-linecap="round"/>
  <path d="M50 16C50 16 52 10 54 12C56 14 54 20 54 20" stroke="#3d3d3d" stroke-width="1.5" stroke-linecap="round"/>
</svg>
