<svg viewBox="0 0 80 80" fill="none" xmlns="http://www.w3.org/2000/svg">
  <path d="M28 32C28 28 32 26 36 26H44C48 26 52 28 52 32V54C52 60 48 66 40 66C32 66 28 60 28 54V32Z" stroke="#3d3d3d" stroke-width="2" fill="none"/>
  <ellipse cx="40" cy="32" rx="10" ry="4" stroke="#3d3d3d" stroke-width="2" fill="none"/>
  <path d="M52 36H56C60 36 62 40 62 44C62 48 60 52 56 52H52" stroke="#3d3d3d" stroke-width="2" stroke-linecap="round" fill="none"/>
  <circle cx="40" cy="32" r="3" stroke="#3d3d3d" stroke-width="1.5" fill="none"/>
  <path d="M38 20C38 20 40 14 42 16C44 18 42 24 42 24" stroke="#3d3d3d" stroke-width="1.5" stroke-linecap="round"/>
</svg>
