<svg viewBox="0 0 80 80" fill="none" xmlns="http://www.w3.org/2000/svg">
  <path d="M20 32C20 28 24 26 28 26H52C56 26 60 28 60 32V54C60 62 52 66 40 66C28 66 20 62 20 54V32Z" stroke="#3d3d3d" stroke-width="2" fill="none"/>
  <ellipse cx="40" cy="32" rx="16" ry="5" stroke="#3d3d3d" stroke-width="2" fill="none"/>
  <path d="M60 36H64C68 36 72 40 72 46C72 52 68 56 64 56H60" stroke="#3d3d3d" stroke-width="2" stroke-linecap="round" fill="none"/>
  <path d="M48 10L50 14L54 12L52 16L56 18L52 20L54 24L50 22L48 26L46 22L42 24L44 20L40 18L44 16L42 12L46 14Z" stroke="#3d3d3d" stroke-width="1.5" stroke-linejoin="round" fill="none"/>
  <path d="M32 18C32 18 34 12 36 14C38 16 36 22 36 22" stroke="#3d3d3d" stroke-width="1.5" stroke-linecap="round"/>
</svg>
