<svg viewBox="0 0 80 80" fill="none" xmlns="http://www.w3.org/2000/svg">
  <path d="M20 30C20 26 24 24 28 24H52C56 24 60 26 60 30V54C60 62 52 66 40 66C28 66 20 62 20 54V30Z" stroke="#3d3d3d" stroke-width="2" fill="none"/>
  <ellipse cx="40" cy="30" rx="16" ry="5" stroke="#3d3d3d" stroke-width="2" fill="none"/>
  <path d="M60 34H64C68 34 72 38 72 44C72 50 68 54 64 54H60" stroke="#3d3d3d" stroke-width="2" stroke-linecap="round" fill="none"/>
  <ellipse cx="40" cy="30" rx="8" ry="2.5" stroke="#3d3d3d" stroke-width="1.5" fill="none"/>
  <path d="M28 44C32 42 36 44 40 42C44 40 48 42 52 44" stroke="#3d3d3d" stroke-width="1.5" stroke-linecap="round" fill="none"/>
  <path d="M32 16C32 16 34 10 36 12C38 14 36 20 36 20" stroke="#3d3d3d" stroke-width="1.5" stroke-linecap="round"/>
  <path d="M46 14C46 14 48 8 50 10C52 12 50 18 50 18" stroke="#3d3d3d" stroke-width="1.5" stroke-linecap="round"/>
</svg>
