<svg viewBox="0 0 80 80" fill="none" xmlns="http://www.w3.org/2000/svg">
  <path d="M26 18C26 16 28 14 32 14H48C52 14 54 16 54 18V58C54 64 50 68 40 68C30 68 26 64 26 58V18Z" stroke="#3d3d3d" stroke-width="2" fill="none"/>
  <ellipse cx="40" cy="18" rx="10" ry="3" stroke="#3d3d3d" stroke-width="2" fill="none"/>
  <path d="M30 28C34 26 38 28 40 26C42 28 46 26 50 28" stroke="#3d3d3d" stroke-width="1.5" stroke-linecap="round" fill="none"/>
  <circle cx="34" cy="38" r="1.5" stroke="#3d3d3d" stroke-width="1" fill="none"/>
  <circle cx="42" cy="42" r="1" stroke="#3d3d3d" stroke-width="1" fill="none"/>
  <circle cx="38" cy="48" r="1.5" stroke="#3d3d3d" stroke-width="1" fill="none"/>
  <circle cx="46" cy="36" r="1" stroke="#3d3d3d" stroke-width="1" fill="none"/>
  <circle cx="44" cy="52" r="1" stroke="#3d3d3d" stroke-width="1" fill="none"/>
  <circle cx="36" cy="56" r="1" stroke="#3d3d3d" stroke-width="1" fill="none"/>
</svg>
